<mxfile modified="2022-05-26T08:44:45.532Z" host="app.diagrams.net" agent="5.0 (Windows NT 10.0; Win64; x64) AppleWebKit/537.36 (KHTML, like Gecko) Chrome/101.0.4951.67 Safari/537.36" etag="elED7YBwsUu_a371xAOr" version="17.4.6" type="github">
  <diagram id="f106602c-feb2-e66a-4537-3a34d633f6aa" name="Page-1">
    <mxGraphModel dx="3229" dy="1194" grid="1" gridSize="4" guides="1" tooltips="1" connect="1" arrows="1" fold="1" page="1" pageScale="1" pageWidth="1169" pageHeight="827" background="none" math="0" shadow="0">
      <root>
        <mxCell id="0" />
        <mxCell id="1" parent="0" />
        <mxCell id="MLptsEWVuVLRwVdw8l3M-666" value="" style="sketch=0;points=[[0,0,0],[0.25,0,0],[0.5,0,0],[0.75,0,0],[1,0,0],[1,0.25,0],[1,0.5,0],[1,0.75,0],[1,1,0],[0.75,1,0],[0.5,1,0],[0.25,1,0],[0,1,0],[0,0.75,0],[0,0.5,0],[0,0.25,0]];rounded=1;absoluteArcSize=1;arcSize=2;html=1;strokeColor=none;gradientColor=none;shadow=0;dashed=0;fontSize=12;fontColor=#9E9E9E;align=left;verticalAlign=top;spacing=10;spacingTop=-4;fillColor=#F6F6F6;" parent="1" vertex="1">
          <mxGeometry x="1051" y="88" width="764" height="1464" as="geometry" />
        </mxCell>
        <mxCell id="tvqW-mT6Z6pj6yy6xD2d-590" value="" style="fillColor=#F6F6F6;strokeColor=none;shadow=0;gradientColor=none;fontSize=14;align=left;spacing=10;fontColor=#717171;9E9E9E;verticalAlign=top;spacingTop=-4;fontStyle=0;spacingLeft=40;html=1;" vertex="1" parent="MLptsEWVuVLRwVdw8l3M-666">
          <mxGeometry x="16" y="85.43042779640163" width="764.3" height="903.1420992800303" as="geometry" />
        </mxCell>
        <mxCell id="tvqW-mT6Z6pj6yy6xD2d-618" value="&lt;font style=&quot;font-size: 18px&quot;&gt;IAwareHierarchy&lt;/font&gt;" style="strokeColor=#6c8ebf;fillColor=#dae8fc;shadow=1;strokeWidth=1;rounded=1;absoluteArcSize=1;arcSize=2;fontSize=10;align=center;html=1;" vertex="1" parent="tvqW-mT6Z6pj6yy6xD2d-590">
          <mxGeometry x="231.99645390070918" y="193.05224718179008" width="151.11347517730496" height="87.46143894982372" as="geometry" />
        </mxCell>
        <mxCell id="tvqW-mT6Z6pj6yy6xD2d-639" style="edgeStyle=none;rounded=0;orthogonalLoop=1;jettySize=auto;html=1;exitX=0.5;exitY=0;exitDx=0;exitDy=0;entryX=0.437;entryY=1.066;entryDx=0;entryDy=0;entryPerimeter=0;fontSize=18;fontColor=#000000;startArrow=none;startFill=0;endArrow=block;endFill=0;strokeColor=#00FF00;strokeWidth=2;" edge="1" parent="tvqW-mT6Z6pj6yy6xD2d-590" source="tvqW-mT6Z6pj6yy6xD2d-619" target="tvqW-mT6Z6pj6yy6xD2d-618">
          <mxGeometry relative="1" as="geometry" />
        </mxCell>
        <mxCell id="tvqW-mT6Z6pj6yy6xD2d-619" value="&lt;font style=&quot;font-size: 18px&quot; color=&quot;#000000&quot;&gt;AbstractArea&lt;/font&gt;" style="strokeColor=#dddddd;fillColor=#9999FF;shadow=1;strokeWidth=1;rounded=1;absoluteArcSize=1;arcSize=2;fontSize=10;fontColor=#9E9E9E;align=center;html=1;" vertex="1" parent="tvqW-mT6Z6pj6yy6xD2d-590">
          <mxGeometry x="230.99432624113487" y="450.4661881721848" width="129.81560283687944" height="78.90312601528585" as="geometry" />
        </mxCell>
        <mxCell id="tvqW-mT6Z6pj6yy6xD2d-642" style="edgeStyle=none;rounded=0;orthogonalLoop=1;jettySize=auto;html=1;exitX=0.5;exitY=0;exitDx=0;exitDy=0;fontSize=18;fontColor=#000000;startArrow=none;startFill=0;endArrow=block;endFill=0;strokeColor=#00FF00;strokeWidth=2;" edge="1" parent="tvqW-mT6Z6pj6yy6xD2d-590" source="tvqW-mT6Z6pj6yy6xD2d-620" target="tvqW-mT6Z6pj6yy6xD2d-619">
          <mxGeometry relative="1" as="geometry" />
        </mxCell>
        <mxCell id="tvqW-mT6Z6pj6yy6xD2d-620" value="&lt;font style=&quot;font-size: 18px&quot; color=&quot;#000000&quot;&gt;DArea&lt;/font&gt;" style="strokeColor=#dddddd;fillColor=#9999FF;shadow=1;strokeWidth=1;rounded=1;absoluteArcSize=1;arcSize=2;fontSize=10;fontColor=#9E9E9E;align=center;html=1;" vertex="1" parent="tvqW-mT6Z6pj6yy6xD2d-590">
          <mxGeometry x="230.99432624113487" y="583.6075295893883" width="129.81560283687944" height="78.90312601528585" as="geometry" />
        </mxCell>
        <mxCell id="tvqW-mT6Z6pj6yy6xD2d-643" style="edgeStyle=none;rounded=0;orthogonalLoop=1;jettySize=auto;html=1;exitX=0.5;exitY=0;exitDx=0;exitDy=0;entryX=0.5;entryY=1;entryDx=0;entryDy=0;fontSize=18;fontColor=#000000;startArrow=none;startFill=0;endArrow=block;endFill=0;strokeColor=#00FF00;strokeWidth=2;" edge="1" parent="tvqW-mT6Z6pj6yy6xD2d-590" source="tvqW-mT6Z6pj6yy6xD2d-621" target="tvqW-mT6Z6pj6yy6xD2d-619">
          <mxGeometry relative="1" as="geometry">
            <Array as="points">
              <mxPoint x="485" y="561.8306559474407" />
              <mxPoint x="296" y="561.4126563092082" />
            </Array>
          </mxGeometry>
        </mxCell>
        <mxCell id="tvqW-mT6Z6pj6yy6xD2d-621" value="&lt;font style=&quot;font-size: 18px&quot; color=&quot;#000000&quot;&gt;DPassage&lt;/font&gt;" style="strokeColor=#dddddd;fillColor=#9999FF;shadow=1;strokeWidth=1;rounded=1;absoluteArcSize=1;arcSize=2;fontSize=10;fontColor=#9E9E9E;align=center;html=1;" vertex="1" parent="tvqW-mT6Z6pj6yy6xD2d-590">
          <mxGeometry x="420.004326241135" y="581.6603374711617" width="129.81560283687944" height="78.90312601528585" as="geometry" />
        </mxCell>
        <mxCell id="tvqW-mT6Z6pj6yy6xD2d-641" style="edgeStyle=none;rounded=0;orthogonalLoop=1;jettySize=auto;html=1;entryX=0.5;entryY=1;entryDx=0;entryDy=0;fontSize=18;fontColor=#000000;startArrow=none;startFill=0;endArrow=block;endFill=0;strokeColor=#00FF00;strokeWidth=2;exitX=0.5;exitY=0;exitDx=0;exitDy=0;" edge="1" parent="tvqW-mT6Z6pj6yy6xD2d-590" source="tvqW-mT6Z6pj6yy6xD2d-622" target="tvqW-mT6Z6pj6yy6xD2d-618">
          <mxGeometry relative="1" as="geometry">
            <Array as="points">
              <mxPoint x="592" y="392.76695718075035" />
              <mxPoint x="307" y="388.3289124668435" />
            </Array>
          </mxGeometry>
        </mxCell>
        <mxCell id="tvqW-mT6Z6pj6yy6xD2d-622" value="&lt;font style=&quot;font-size: 18px&quot; color=&quot;#000000&quot;&gt;DScene&lt;/font&gt;" style="strokeColor=#dddddd;fillColor=#9999FF;shadow=1;strokeWidth=1;rounded=1;absoluteArcSize=1;arcSize=2;fontSize=10;fontColor=#9E9E9E;align=center;html=1;" vertex="1" parent="tvqW-mT6Z6pj6yy6xD2d-590">
          <mxGeometry x="527.004326241135" y="450.4661881721848" width="129.81560283687944" height="78.90312601528585" as="geometry" />
        </mxCell>
        <mxCell id="tvqW-mT6Z6pj6yy6xD2d-623" value="" style="group" vertex="1" connectable="0" parent="tvqW-mT6Z6pj6yy6xD2d-590">
          <mxGeometry x="475" y="64.35164835164835" width="180" height="57.69458128078819" as="geometry" />
        </mxCell>
        <mxCell id="tvqW-mT6Z6pj6yy6xD2d-624" value="fn" style="shape=mxgraph.electrical.abstract.function;html=1;shadow=0;dashed=0;align=center;strokeWidth=1;fontSize=24;fillColor=#d5e8d4;strokeColor=#82b366;" vertex="1" parent="tvqW-mT6Z6pj6yy6xD2d-623">
          <mxGeometry y="11.09511178476696" width="32" height="35.50435771125427" as="geometry" />
        </mxCell>
        <mxCell id="tvqW-mT6Z6pj6yy6xD2d-625" value="&lt;font style=&quot;font-size: 18px&quot;&gt;addNode&lt;/font&gt;" style="strokeColor=#82b366;fillColor=#d5e8d4;shadow=1;strokeWidth=1;rounded=1;absoluteArcSize=1;arcSize=2;fontSize=10;align=center;html=1;" vertex="1" parent="tvqW-mT6Z6pj6yy6xD2d-623">
          <mxGeometry x="32" width="148" height="57.69458128078819" as="geometry" />
        </mxCell>
        <mxCell id="tvqW-mT6Z6pj6yy6xD2d-626" value="" style="group" vertex="1" connectable="0" parent="tvqW-mT6Z6pj6yy6xD2d-590">
          <mxGeometry x="476.81999999999994" y="139.79840848806364" width="180" height="57.69458128078819" as="geometry" />
        </mxCell>
        <mxCell id="tvqW-mT6Z6pj6yy6xD2d-627" value="fn" style="shape=mxgraph.electrical.abstract.function;html=1;shadow=0;dashed=0;align=center;strokeWidth=1;fontSize=24;fillColor=#d5e8d4;strokeColor=#82b366;" vertex="1" parent="tvqW-mT6Z6pj6yy6xD2d-626">
          <mxGeometry y="11.09511178476696" width="32" height="35.50435771125427" as="geometry" />
        </mxCell>
        <mxCell id="tvqW-mT6Z6pj6yy6xD2d-628" value="&lt;font style=&quot;font-size: 18px&quot;&gt;replaceNode&lt;/font&gt;" style="strokeColor=#82b366;fillColor=#d5e8d4;shadow=1;strokeWidth=1;rounded=1;absoluteArcSize=1;arcSize=2;fontSize=10;align=center;html=1;" vertex="1" parent="tvqW-mT6Z6pj6yy6xD2d-626">
          <mxGeometry x="32" width="148" height="57.69458128078819" as="geometry" />
        </mxCell>
        <mxCell id="tvqW-mT6Z6pj6yy6xD2d-629" value="" style="group" vertex="1" connectable="0" parent="tvqW-mT6Z6pj6yy6xD2d-590">
          <mxGeometry x="476.81999999999994" y="222.82312997347492" width="180" height="57.69458128078819" as="geometry" />
        </mxCell>
        <mxCell id="tvqW-mT6Z6pj6yy6xD2d-630" value="fn" style="shape=mxgraph.electrical.abstract.function;html=1;shadow=0;dashed=0;align=center;strokeWidth=1;fontSize=24;fillColor=#d5e8d4;strokeColor=#82b366;" vertex="1" parent="tvqW-mT6Z6pj6yy6xD2d-629">
          <mxGeometry y="11.09511178476696" width="32" height="35.50435771125427" as="geometry" />
        </mxCell>
        <mxCell id="tvqW-mT6Z6pj6yy6xD2d-631" value="&lt;font style=&quot;font-size: 18px&quot;&gt;findNode&lt;/font&gt;" style="strokeColor=#82b366;fillColor=#d5e8d4;shadow=1;strokeWidth=1;rounded=1;absoluteArcSize=1;arcSize=2;fontSize=10;align=center;html=1;" vertex="1" parent="tvqW-mT6Z6pj6yy6xD2d-629">
          <mxGeometry x="32" width="148" height="57.69458128078819" as="geometry" />
        </mxCell>
        <mxCell id="tvqW-mT6Z6pj6yy6xD2d-632" value="" style="group" vertex="1" connectable="0" parent="tvqW-mT6Z6pj6yy6xD2d-590">
          <mxGeometry x="479" y="304.00606290261464" width="180" height="57.69458128078819" as="geometry" />
        </mxCell>
        <mxCell id="tvqW-mT6Z6pj6yy6xD2d-633" value="fn" style="shape=mxgraph.electrical.abstract.function;html=1;shadow=0;dashed=0;align=center;strokeWidth=1;fontSize=24;fillColor=#d5e8d4;strokeColor=#82b366;" vertex="1" parent="tvqW-mT6Z6pj6yy6xD2d-632">
          <mxGeometry y="11.09511178476696" width="32" height="35.50435771125427" as="geometry" />
        </mxCell>
        <mxCell id="tvqW-mT6Z6pj6yy6xD2d-634" value="&lt;font style=&quot;font-size: 18px&quot;&gt;visit&lt;/font&gt;" style="strokeColor=#82b366;fillColor=#d5e8d4;shadow=1;strokeWidth=1;rounded=1;absoluteArcSize=1;arcSize=2;fontSize=10;align=center;html=1;" vertex="1" parent="tvqW-mT6Z6pj6yy6xD2d-632">
          <mxGeometry x="32" width="148" height="57.69458128078819" as="geometry" />
        </mxCell>
        <mxCell id="tvqW-mT6Z6pj6yy6xD2d-635" style="edgeStyle=orthogonalEdgeStyle;curved=1;rounded=0;orthogonalLoop=1;jettySize=auto;html=1;exitX=0;exitY=0.5;exitDx=0;exitDy=0;exitPerimeter=0;entryX=1;entryY=0.5;entryDx=0;entryDy=0;fontSize=18;fontColor=#000000;startArrow=classic;startFill=1;endArrow=none;endFill=0;strokeColor=#00FF00;strokeWidth=2;" edge="1" parent="tvqW-mT6Z6pj6yy6xD2d-590" source="tvqW-mT6Z6pj6yy6xD2d-624" target="tvqW-mT6Z6pj6yy6xD2d-618">
          <mxGeometry relative="1" as="geometry" />
        </mxCell>
        <mxCell id="tvqW-mT6Z6pj6yy6xD2d-636" style="edgeStyle=orthogonalEdgeStyle;curved=1;rounded=0;orthogonalLoop=1;jettySize=auto;html=1;entryX=1;entryY=0.5;entryDx=0;entryDy=0;fontSize=18;fontColor=#000000;startArrow=classic;startFill=1;endArrow=none;endFill=0;strokeColor=#00FF00;strokeWidth=2;" edge="1" parent="tvqW-mT6Z6pj6yy6xD2d-590" source="tvqW-mT6Z6pj6yy6xD2d-627" target="tvqW-mT6Z6pj6yy6xD2d-618">
          <mxGeometry relative="1" as="geometry" />
        </mxCell>
        <mxCell id="tvqW-mT6Z6pj6yy6xD2d-637" style="edgeStyle=orthogonalEdgeStyle;curved=1;rounded=0;orthogonalLoop=1;jettySize=auto;html=1;fontSize=18;fontColor=#000000;startArrow=classic;startFill=1;endArrow=none;endFill=0;strokeColor=#00FF00;strokeWidth=2;entryX=1;entryY=0.5;entryDx=0;entryDy=0;" edge="1" parent="tvqW-mT6Z6pj6yy6xD2d-590" source="tvqW-mT6Z6pj6yy6xD2d-630" target="tvqW-mT6Z6pj6yy6xD2d-618">
          <mxGeometry relative="1" as="geometry">
            <mxPoint x="396" y="563.6336116124653" as="targetPoint" />
          </mxGeometry>
        </mxCell>
        <mxCell id="tvqW-mT6Z6pj6yy6xD2d-638" style="edgeStyle=orthogonalEdgeStyle;curved=1;rounded=0;orthogonalLoop=1;jettySize=auto;html=1;exitX=0;exitY=0.5;exitDx=0;exitDy=0;exitPerimeter=0;fontSize=18;fontColor=#000000;startArrow=classic;startFill=1;endArrow=none;endFill=0;strokeColor=#00FF00;strokeWidth=2;entryX=1;entryY=0.5;entryDx=0;entryDy=0;" edge="1" parent="tvqW-mT6Z6pj6yy6xD2d-590" source="tvqW-mT6Z6pj6yy6xD2d-633" target="tvqW-mT6Z6pj6yy6xD2d-618">
          <mxGeometry relative="1" as="geometry">
            <mxPoint x="396" y="563.6336116124653" as="targetPoint" />
          </mxGeometry>
        </mxCell>
        <mxCell id="tvqW-mT6Z6pj6yy6xD2d-648" style="edgeStyle=orthogonalEdgeStyle;rounded=0;orthogonalLoop=1;jettySize=auto;html=1;fontColor=#7F00FF;endArrow=none;endFill=0;strokeColor=#6666FF;strokeWidth=2;" edge="1" parent="tvqW-mT6Z6pj6yy6xD2d-590" source="tvqW-mT6Z6pj6yy6xD2d-622" target="tvqW-mT6Z6pj6yy6xD2d-620">
          <mxGeometry relative="1" as="geometry">
            <mxPoint x="460" y="777.581345602613" as="targetPoint" />
            <Array as="points">
              <mxPoint x="610" y="821.2463054187192" />
              <mxPoint x="296" y="821.2463054187192" />
            </Array>
            <mxPoint x="623.6999999999998" y="581.6631682627117" as="sourcePoint" />
          </mxGeometry>
        </mxCell>
        <mxCell id="tvqW-mT6Z6pj6yy6xD2d-649" value="root" style="text;html=1;resizable=0;autosize=1;align=center;verticalAlign=middle;points=[];fillColor=none;strokeColor=none;rounded=0;fontSize=18;fontColor=#000000;" vertex="1" parent="tvqW-mT6Z6pj6yy6xD2d-590">
          <mxGeometry x="569" y="534.7863209720713" width="44" height="28" as="geometry" />
        </mxCell>
        <mxCell id="tvqW-mT6Z6pj6yy6xD2d-654" value="&lt;font style=&quot;font-size: 18px&quot; color=&quot;#000000&quot;&gt;DTag&lt;/font&gt;" style="strokeColor=#dddddd;fillColor=#9999FF;shadow=1;strokeWidth=1;rounded=1;absoluteArcSize=1;arcSize=2;fontSize=10;fontColor=#9E9E9E;align=center;html=1;" vertex="1" parent="tvqW-mT6Z6pj6yy6xD2d-590">
          <mxGeometry x="33.004326241135004" y="450.46618817218473" width="129.81560283687944" height="78.90312601528585" as="geometry" />
        </mxCell>
        <mxCell id="tvqW-mT6Z6pj6yy6xD2d-655" style="edgeStyle=none;rounded=0;orthogonalLoop=1;jettySize=auto;html=1;fontSize=18;fontColor=#000000;startArrow=none;startFill=0;endArrow=block;endFill=0;strokeColor=#00FF00;strokeWidth=2;exitX=0.5;exitY=0;exitDx=0;exitDy=0;" edge="1" parent="tvqW-mT6Z6pj6yy6xD2d-590" source="tvqW-mT6Z6pj6yy6xD2d-654">
          <mxGeometry relative="1" as="geometry">
            <mxPoint x="595.9121276595743" y="454.46618817218484" as="sourcePoint" />
            <mxPoint x="261" y="282.56957220359834" as="targetPoint" />
            <Array as="points">
              <mxPoint x="98" y="396.56957220359834" />
              <mxPoint x="261" y="396.56957220359834" />
            </Array>
          </mxGeometry>
        </mxCell>
        <mxCell id="tvqW-mT6Z6pj6yy6xD2d-656" style="edgeStyle=orthogonalEdgeStyle;rounded=0;orthogonalLoop=1;jettySize=auto;html=1;fontColor=#7F00FF;endArrow=diamond;endFill=1;strokeColor=#6666FF;strokeWidth=2;exitX=1;exitY=0.5;exitDx=0;exitDy=0;entryX=0;entryY=0.5;entryDx=0;entryDy=0;" edge="1" parent="tvqW-mT6Z6pj6yy6xD2d-590" source="tvqW-mT6Z6pj6yy6xD2d-654" target="tvqW-mT6Z6pj6yy6xD2d-619">
          <mxGeometry relative="1" as="geometry">
            <mxPoint x="41" y="780.2945076041152" as="targetPoint" />
            <Array as="points">
              <mxPoint x="197" y="490" />
              <mxPoint x="197" y="490" />
            </Array>
            <mxPoint x="204.69999999999982" y="575.620220136415" as="sourcePoint" />
          </mxGeometry>
        </mxCell>
        <mxCell id="14" value="" style="fillColor=#F6F6F6;strokeColor=none;shadow=0;gradientColor=none;fontSize=14;align=left;spacing=10;fontColor=#717171;9E9E9E;verticalAlign=top;spacingTop=-4;fontStyle=0;spacingLeft=40;html=1;" parent="MLptsEWVuVLRwVdw8l3M-666" vertex="1">
          <mxGeometry x="-580" y="-3.61" width="612" height="1467.61" as="geometry" />
        </mxCell>
        <mxCell id="tvqW-mT6Z6pj6yy6xD2d-580" value="" style="rounded=1;arcSize=10;dashed=1;fillColor=none;gradientColor=none;dashPattern=1 1;strokeWidth=2;" vertex="1" parent="14">
          <mxGeometry x="17.169999999999998" y="346.1729245490734" width="554.82" height="995.2342997542997" as="geometry" />
        </mxCell>
        <mxCell id="580" value="" style="rounded=1;absoluteArcSize=1;arcSize=2;html=1;strokeColor=none;gradientColor=none;shadow=0;dashed=0;strokeColor=none;fontSize=12;fontColor=#9E9E9E;align=left;verticalAlign=top;spacing=10;spacingTop=-4;fillColor=#E1F5FE;" parent="14" vertex="1">
          <mxGeometry x="19.517163120567375" y="11.379771473584853" width="527.3758865248227" height="322.04802392494145" as="geometry" />
        </mxCell>
        <mxCell id="572" value="" style="strokeColor=#dddddd;fillColor=#9999FF;shadow=1;strokeWidth=1;rounded=1;absoluteArcSize=1;arcSize=2;fontSize=10;fontColor=#9E9E9E;align=center;html=1;" parent="14" vertex="1">
          <mxGeometry x="40.004326241134756" y="158.6643184409656" width="129.81560283687944" height="64.10896849100858" as="geometry" />
        </mxCell>
        <mxCell id="MLptsEWVuVLRwVdw8l3M-590" value="" style="rounded=1;absoluteArcSize=1;arcSize=2;html=1;strokeColor=#d6b656;shadow=0;dashed=0;strokeColor=none;fontSize=12;align=left;verticalAlign=top;spacing=10;spacingTop=-4;fillColor=#fff2cc;" parent="14" vertex="1">
          <mxGeometry x="29.72" y="762.2470542635659" width="529.72" height="553.6719896640827" as="geometry" />
        </mxCell>
        <mxCell id="MLptsEWVuVLRwVdw8l3M-607" value="&lt;span style=&quot;font-size: 22px&quot;&gt;SiteService&lt;/span&gt;" style="text;html=1;resizable=0;autosize=1;align=center;verticalAlign=middle;points=[];fillColor=none;strokeColor=none;rounded=0;" parent="14" vertex="1">
          <mxGeometry x="44.05804702761925" y="188.423412765811" width="130" height="20" as="geometry" />
        </mxCell>
        <mxCell id="tvqW-mT6Z6pj6yy6xD2d-582" value="Scene" style="swimlane;childLayout=stackLayout;horizontal=1;startSize=30;horizontalStack=0;rounded=1;fontSize=32;fontStyle=0;strokeWidth=2;resizeParent=0;resizeLast=1;shadow=0;dashed=0;align=center;" vertex="1" parent="14">
          <mxGeometry x="188.0008510638298" y="781.2123509991062" width="257.60283687943263" height="179.00481626270525" as="geometry" />
        </mxCell>
        <mxCell id="tvqW-mT6Z6pj6yy6xD2d-583" value="+站点名称&#xa;+UUID&#xa;+root_area_id" style="align=left;strokeColor=none;fillColor=none;spacingLeft=4;fontSize=32;verticalAlign=top;resizable=0;rotatable=0;part=1;" vertex="1" parent="tvqW-mT6Z6pj6yy6xD2d-582">
          <mxGeometry y="30" width="257.60283687943263" height="149.00481626270525" as="geometry" />
        </mxCell>
        <mxCell id="tvqW-mT6Z6pj6yy6xD2d-584" value="Area" style="swimlane;childLayout=stackLayout;horizontal=1;startSize=30;horizontalStack=0;rounded=1;fontSize=32;fontStyle=0;strokeWidth=2;resizeParent=0;resizeLast=1;shadow=0;dashed=0;align=center;" vertex="1" parent="14">
          <mxGeometry x="44.06" y="970.82" width="183.94" height="337.18" as="geometry" />
        </mxCell>
        <mxCell id="tvqW-mT6Z6pj6yy6xD2d-585" value="+id&#xa;+name&#xa;+scene_id&#xa;+parent_id&#xa;+kind&#xa;+UUID&#xa;+map_id&#xa;+tags" style="align=left;strokeColor=none;fillColor=none;spacingLeft=4;fontSize=32;verticalAlign=top;resizable=0;rotatable=0;part=1;" vertex="1" parent="tvqW-mT6Z6pj6yy6xD2d-584">
          <mxGeometry y="30" width="183.94" height="307.18" as="geometry" />
        </mxCell>
        <mxCell id="tvqW-mT6Z6pj6yy6xD2d-587" value="Tag" style="swimlane;childLayout=stackLayout;horizontal=1;startSize=30;horizontalStack=0;rounded=1;fontSize=32;fontStyle=0;strokeWidth=2;resizeParent=0;resizeLast=1;shadow=0;dashed=0;align=center;" vertex="1" parent="14">
          <mxGeometry x="304" y="993.58" width="252" height="302.42" as="geometry" />
        </mxCell>
        <mxCell id="tvqW-mT6Z6pj6yy6xD2d-588" value="+id&#xa;+scene_id&#xa;+host_name&#xa;+host_id&#xa;+namespace&#xa;+key&#xa;+value&#xa;" style="align=left;strokeColor=none;fillColor=none;spacingLeft=4;fontSize=32;verticalAlign=top;resizable=0;rotatable=0;part=1;" vertex="1" parent="tvqW-mT6Z6pj6yy6xD2d-587">
          <mxGeometry y="30" width="252" height="272.42" as="geometry" />
        </mxCell>
        <mxCell id="tvqW-mT6Z6pj6yy6xD2d-586" style="edgeStyle=orthogonalEdgeStyle;rounded=0;orthogonalLoop=1;jettySize=auto;html=1;fontColor=#7F00FF;endArrow=diamond;endFill=1;strokeColor=#6666FF;strokeWidth=2;exitX=-0.025;exitY=0.121;exitDx=0;exitDy=0;exitPerimeter=0;entryX=0.32;entryY=1.002;entryDx=0;entryDy=0;entryPerimeter=0;" edge="1" parent="14" source="tvqW-mT6Z6pj6yy6xD2d-588" target="tvqW-mT6Z6pj6yy6xD2d-585">
          <mxGeometry relative="1" as="geometry">
            <mxPoint x="654" y="958.9725616438354" as="targetPoint" />
            <Array as="points">
              <mxPoint x="298" y="1053" />
              <mxPoint x="284" y="1053" />
              <mxPoint x="284" y="1332" />
              <mxPoint x="103" y="1332" />
            </Array>
          </mxGeometry>
        </mxCell>
        <mxCell id="MLptsEWVuVLRwVdw8l3M-595" value="" style="rounded=1;arcSize=10;dashed=1;fillColor=none;gradientColor=none;dashPattern=1 1;strokeWidth=2;" parent="14" vertex="1">
          <mxGeometry x="12.475460992907802" y="7.582904269773889" width="534.4143262411349" height="335.0602971071149" as="geometry" />
        </mxCell>
        <mxCell id="tvqW-mT6Z6pj6yy6xD2d-646" value="" style="group" vertex="1" connectable="0" parent="14">
          <mxGeometry x="31.6387557631321" y="364.056362470655" width="525.8912442368679" height="393.1433667999999" as="geometry" />
        </mxCell>
        <mxCell id="MLptsEWVuVLRwVdw8l3M-589" value="" style="rounded=1;absoluteArcSize=1;arcSize=2;html=1;strokeColor=#82b366;shadow=0;dashed=0;strokeColor=none;fontSize=12;align=left;verticalAlign=top;spacing=10;spacingTop=-4;fillColor=#d5e8d4;" parent="tvqW-mT6Z6pj6yy6xD2d-646" vertex="1">
          <mxGeometry x="0.001244236867901094" width="525.89" height="393.14336679999997" as="geometry" />
        </mxCell>
        <mxCell id="MLptsEWVuVLRwVdw8l3M-593" value="" style="strokeColor=#dddddd;fillColor=#9999FF;shadow=1;strokeWidth=1;rounded=1;absoluteArcSize=1;arcSize=2;fontSize=10;fontColor=#9E9E9E;align=center;html=1;" parent="tvqW-mT6Z6pj6yy6xD2d-646" vertex="1">
          <mxGeometry x="5.387698137577122" y="156.05528195016922" width="151.11347517730496" height="71.06261712275213" as="geometry" />
        </mxCell>
        <mxCell id="MLptsEWVuVLRwVdw8l3M-609" value="SceneService" style="text;html=1;resizable=0;autosize=1;align=center;verticalAlign=middle;points=[];fillColor=none;strokeColor=none;rounded=0;fontSize=22;" parent="tvqW-mT6Z6pj6yy6xD2d-646" vertex="1">
          <mxGeometry y="179.00742083841638" width="150" height="30" as="geometry" />
        </mxCell>
        <mxCell id="tvqW-mT6Z6pj6yy6xD2d-597" style="edgeStyle=orthogonalEdgeStyle;curved=1;rounded=0;orthogonalLoop=1;jettySize=auto;html=1;entryX=1;entryY=0.25;entryDx=0;entryDy=0;startArrow=classic;startFill=1;strokeWidth=2;strokeColor=#00FF00;endArrow=none;endFill=0;" edge="1" parent="tvqW-mT6Z6pj6yy6xD2d-646" source="tvqW-mT6Z6pj6yy6xD2d-592" target="MLptsEWVuVLRwVdw8l3M-593">
          <mxGeometry relative="1" as="geometry" />
        </mxCell>
        <mxCell id="tvqW-mT6Z6pj6yy6xD2d-599" style="edgeStyle=orthogonalEdgeStyle;curved=1;rounded=0;orthogonalLoop=1;jettySize=auto;html=1;entryX=1;entryY=0.25;entryDx=0;entryDy=0;startArrow=classic;startFill=1;endArrow=none;endFill=0;strokeColor=#00FF00;strokeWidth=2;" edge="1" parent="tvqW-mT6Z6pj6yy6xD2d-646" target="MLptsEWVuVLRwVdw8l3M-593">
          <mxGeometry relative="1" as="geometry">
            <mxPoint x="273.8912442368679" y="174.9074279708435" as="sourcePoint" />
          </mxGeometry>
        </mxCell>
        <mxCell id="tvqW-mT6Z6pj6yy6xD2d-598" style="edgeStyle=orthogonalEdgeStyle;curved=1;rounded=0;orthogonalLoop=1;jettySize=auto;html=1;entryX=1;entryY=0.25;entryDx=0;entryDy=0;startArrow=classic;startFill=1;endArrow=none;endFill=0;strokeColor=#00FF00;strokeWidth=2;" edge="1" parent="tvqW-mT6Z6pj6yy6xD2d-646" target="MLptsEWVuVLRwVdw8l3M-593">
          <mxGeometry relative="1" as="geometry">
            <mxPoint x="273.8912442368679" y="124.42452870794423" as="sourcePoint" />
          </mxGeometry>
        </mxCell>
        <mxCell id="tvqW-mT6Z6pj6yy6xD2d-600" style="edgeStyle=orthogonalEdgeStyle;curved=1;rounded=0;orthogonalLoop=1;jettySize=auto;html=1;entryX=1;entryY=0.25;entryDx=0;entryDy=0;startArrow=classic;startFill=1;endArrow=none;endFill=0;strokeColor=#00FF00;strokeWidth=2;" edge="1" parent="tvqW-mT6Z6pj6yy6xD2d-646" target="MLptsEWVuVLRwVdw8l3M-593">
          <mxGeometry relative="1" as="geometry">
            <mxPoint x="273.8912442368679" y="236.2080913615069" as="sourcePoint" />
          </mxGeometry>
        </mxCell>
        <mxCell id="tvqW-mT6Z6pj6yy6xD2d-603" value="" style="group" vertex="1" connectable="0" parent="tvqW-mT6Z6pj6yy6xD2d-646">
          <mxGeometry x="273.8912442368679" y="35.17797465389018" width="180" height="46.87697788697788" as="geometry" />
        </mxCell>
        <mxCell id="tvqW-mT6Z6pj6yy6xD2d-592" value="fn" style="shape=mxgraph.electrical.abstract.function;html=1;shadow=0;dashed=0;align=center;strokeWidth=1;fontSize=24;fillColor=#d5e8d4;strokeColor=#82b366;" vertex="1" parent="tvqW-mT6Z6pj6yy6xD2d-603">
          <mxGeometry y="9.014803439803439" width="32" height="28.847371007371002" as="geometry" />
        </mxCell>
        <mxCell id="tvqW-mT6Z6pj6yy6xD2d-602" value="&lt;font style=&quot;font-size: 18px&quot;&gt;loadScene&lt;/font&gt;" style="strokeColor=#82b366;fillColor=#d5e8d4;shadow=1;strokeWidth=1;rounded=1;absoluteArcSize=1;arcSize=2;fontSize=10;align=center;html=1;" vertex="1" parent="tvqW-mT6Z6pj6yy6xD2d-603">
          <mxGeometry x="32" width="148" height="46.87697788697788" as="geometry" />
        </mxCell>
        <mxCell id="tvqW-mT6Z6pj6yy6xD2d-604" value="" style="group" vertex="1" connectable="0" parent="tvqW-mT6Z6pj6yy6xD2d-646">
          <mxGeometry x="273.8912442368679" y="101.88752010843565" width="180" height="46.87697788697788" as="geometry" />
        </mxCell>
        <mxCell id="tvqW-mT6Z6pj6yy6xD2d-605" value="fn" style="shape=mxgraph.electrical.abstract.function;html=1;shadow=0;dashed=0;align=center;strokeWidth=1;fontSize=24;fillColor=#d5e8d4;strokeColor=#82b366;" vertex="1" parent="tvqW-mT6Z6pj6yy6xD2d-604">
          <mxGeometry y="9.014803439803439" width="32" height="28.847371007371002" as="geometry" />
        </mxCell>
        <mxCell id="tvqW-mT6Z6pj6yy6xD2d-606" value="&lt;font style=&quot;font-size: 18px&quot;&gt;saveScene&lt;/font&gt;" style="strokeColor=#82b366;fillColor=#d5e8d4;shadow=1;strokeWidth=1;rounded=1;absoluteArcSize=1;arcSize=2;fontSize=10;align=center;html=1;" vertex="1" parent="tvqW-mT6Z6pj6yy6xD2d-604">
          <mxGeometry x="32" width="148" height="46.87697788697788" as="geometry" />
        </mxCell>
        <mxCell id="tvqW-mT6Z6pj6yy6xD2d-607" value="" style="group" vertex="1" connectable="0" parent="tvqW-mT6Z6pj6yy6xD2d-646">
          <mxGeometry x="273.8912442368679" y="159.17659596838647" width="180" height="46.87697788697788" as="geometry" />
        </mxCell>
        <mxCell id="tvqW-mT6Z6pj6yy6xD2d-608" value="fn" style="shape=mxgraph.electrical.abstract.function;html=1;shadow=0;dashed=0;align=center;strokeWidth=1;fontSize=24;fillColor=#d5e8d4;strokeColor=#82b366;" vertex="1" parent="tvqW-mT6Z6pj6yy6xD2d-607">
          <mxGeometry y="9.014803439803439" width="32" height="28.847371007371002" as="geometry" />
        </mxCell>
        <mxCell id="tvqW-mT6Z6pj6yy6xD2d-609" value="&lt;font style=&quot;font-size: 18px&quot;&gt;loadArea&lt;/font&gt;" style="strokeColor=#82b366;fillColor=#d5e8d4;shadow=1;strokeWidth=1;rounded=1;absoluteArcSize=1;arcSize=2;fontSize=10;align=center;html=1;" vertex="1" parent="tvqW-mT6Z6pj6yy6xD2d-607">
          <mxGeometry x="32" width="148" height="46.87697788697788" as="geometry" />
        </mxCell>
        <mxCell id="tvqW-mT6Z6pj6yy6xD2d-610" value="" style="group" vertex="1" connectable="0" parent="tvqW-mT6Z6pj6yy6xD2d-646">
          <mxGeometry x="273.8912442368679" y="217.27700413791968" width="180" height="46.87697788697788" as="geometry" />
        </mxCell>
        <mxCell id="tvqW-mT6Z6pj6yy6xD2d-611" value="fn" style="shape=mxgraph.electrical.abstract.function;html=1;shadow=0;dashed=0;align=center;strokeWidth=1;fontSize=24;fillColor=#d5e8d4;strokeColor=#82b366;" vertex="1" parent="tvqW-mT6Z6pj6yy6xD2d-610">
          <mxGeometry y="9.014803439803439" width="32" height="28.847371007371002" as="geometry" />
        </mxCell>
        <mxCell id="tvqW-mT6Z6pj6yy6xD2d-612" value="&lt;font style=&quot;font-size: 18px&quot;&gt;bindRobot&lt;/font&gt;" style="strokeColor=#82b366;fillColor=#d5e8d4;shadow=1;strokeWidth=1;rounded=1;absoluteArcSize=1;arcSize=2;fontSize=10;align=center;html=1;" vertex="1" parent="tvqW-mT6Z6pj6yy6xD2d-610">
          <mxGeometry x="32" width="148" height="46.87697788697788" as="geometry" />
        </mxCell>
        <mxCell id="tvqW-mT6Z6pj6yy6xD2d-613" value="" style="group" vertex="1" connectable="0" parent="tvqW-mT6Z6pj6yy6xD2d-646">
          <mxGeometry x="277.8912442368679" y="278.57766752858305" width="180" height="46.87697788697788" as="geometry" />
        </mxCell>
        <mxCell id="tvqW-mT6Z6pj6yy6xD2d-614" value="fn" style="shape=mxgraph.electrical.abstract.function;html=1;shadow=0;dashed=0;align=center;strokeWidth=1;fontSize=24;fillColor=#d5e8d4;strokeColor=#82b366;" vertex="1" parent="tvqW-mT6Z6pj6yy6xD2d-613">
          <mxGeometry y="9.014803439803439" width="32" height="28.847371007371002" as="geometry" />
        </mxCell>
        <mxCell id="tvqW-mT6Z6pj6yy6xD2d-615" value="&lt;font style=&quot;font-size: 18px&quot;&gt;unBindRobot&lt;/font&gt;" style="strokeColor=#82b366;fillColor=#d5e8d4;shadow=1;strokeWidth=1;rounded=1;absoluteArcSize=1;arcSize=2;fontSize=10;align=center;html=1;" vertex="1" parent="tvqW-mT6Z6pj6yy6xD2d-613">
          <mxGeometry x="32" width="148" height="46.87697788697788" as="geometry" />
        </mxCell>
        <mxCell id="tvqW-mT6Z6pj6yy6xD2d-601" style="edgeStyle=orthogonalEdgeStyle;curved=1;rounded=0;orthogonalLoop=1;jettySize=auto;html=1;startArrow=classic;startFill=1;endArrow=none;endFill=0;strokeColor=#00FF00;strokeWidth=2;exitX=0;exitY=0.5;exitDx=0;exitDy=0;exitPerimeter=0;entryX=1;entryY=0.25;entryDx=0;entryDy=0;" edge="1" parent="tvqW-mT6Z6pj6yy6xD2d-646" source="tvqW-mT6Z6pj6yy6xD2d-614" target="MLptsEWVuVLRwVdw8l3M-593">
          <mxGeometry relative="1" as="geometry">
            <mxPoint x="161.8912442368679" y="199.24739725831276" as="targetPoint" />
            <mxPoint x="273.8912442368679" y="326.3561257595413" as="sourcePoint" />
          </mxGeometry>
        </mxCell>
        <mxCell id="2" value="Architecture：extensibility" style="fillColor=#4DA1F5;strokeColor=none;shadow=1;gradientColor=none;fontSize=14;align=left;spacingLeft=50;fontColor=#ffffff;html=1;" parent="1" vertex="1">
          <mxGeometry x="448" y="40" width="1376" height="52" as="geometry" />
        </mxCell>
        <mxCell id="tvqW-mT6Z6pj6yy6xD2d-581" value="" style="sketch=0;points=[[0,0,0],[0.25,0,0],[0.5,0,0],[0.75,0,0],[1,0,0],[1,0.25,0],[1,0.5,0],[1,0.75,0],[1,1,0],[0.75,1,0],[0.5,1,0],[0.25,1,0],[0,1,0],[0,0.75,0],[0,0.5,0],[0,0.25,0]];rounded=1;absoluteArcSize=1;arcSize=2;html=1;strokeColor=none;gradientColor=none;shadow=0;dashed=0;fontSize=12;fontColor=#9E9E9E;align=left;verticalAlign=top;spacing=10;spacingTop=-4;fillColor=#E0F2F1;" vertex="1" parent="1">
          <mxGeometry x="-92.00453900709215" y="180.00017200938234" width="534.4143262411349" height="201.113369820172" as="geometry" />
        </mxCell>
        <mxCell id="tvqW-mT6Z6pj6yy6xD2d-616" value="使用树结构表达复杂关系" style="text;html=1;resizable=0;autosize=1;align=center;verticalAlign=middle;points=[];fillColor=none;strokeColor=none;rounded=0;fontSize=18;" vertex="1" parent="1">
          <mxGeometry x="-60" y="212" width="212" height="28" as="geometry" />
        </mxCell>
        <mxCell id="tvqW-mT6Z6pj6yy6xD2d-617" value="表达任意资源" style="text;html=1;resizable=0;autosize=1;align=center;verticalAlign=middle;points=[];fillColor=none;strokeColor=none;rounded=0;fontSize=18;" vertex="1" parent="1">
          <mxGeometry x="-68" y="256" width="124" height="28" as="geometry" />
        </mxCell>
        <mxCell id="tvqW-mT6Z6pj6yy6xD2d-645" value="便捷的访问能力：可以通过uuid, 或是名字访问子树" style="text;html=1;resizable=0;autosize=1;align=center;verticalAlign=middle;points=[];fillColor=none;strokeColor=none;rounded=0;fontSize=18;fontColor=#000000;" vertex="1" parent="1">
          <mxGeometry x="-63.999999999999886" y="316" width="420" height="28" as="geometry" />
        </mxCell>
        <mxCell id="tvqW-mT6Z6pj6yy6xD2d-644" value="强大的表达能力" style="text;html=1;resizable=0;autosize=1;align=center;verticalAlign=middle;points=[];fillColor=none;strokeColor=none;rounded=0;fontSize=18;fontColor=#000000;" vertex="1" parent="1">
          <mxGeometry x="114" y="192" width="140" height="28" as="geometry" />
        </mxCell>
        <mxCell id="tvqW-mT6Z6pj6yy6xD2d-652" value="" style="sketch=0;points=[[0,0,0],[0.25,0,0],[0.5,0,0],[0.75,0,0],[1,0,0],[1,0.25,0],[1,0.5,0],[1,0.75,0],[1,1,0],[0.75,1,0],[0.5,1,0],[0.25,1,0],[0,1,0],[0,0.75,0],[0,0.5,0],[0,0.25,0]];rounded=1;absoluteArcSize=1;arcSize=2;html=1;strokeColor=none;gradientColor=none;shadow=0;dashed=0;fontSize=12;fontColor=#9E9E9E;align=left;verticalAlign=top;spacing=10;spacingTop=-4;fillColor=#E0F2F1;" vertex="1" parent="1">
          <mxGeometry x="-83.20453900709215" y="723.4401720093824" width="534.4143262411349" height="201.113369820172" as="geometry" />
        </mxCell>
        <mxCell id="tvqW-mT6Z6pj6yy6xD2d-653" value="以不变应万变" style="text;html=1;resizable=0;autosize=1;align=center;verticalAlign=middle;points=[];fillColor=none;strokeColor=none;rounded=0;fontSize=18;fontColor=#000000;" vertex="1" parent="1">
          <mxGeometry x="100" y="756" width="124" height="28" as="geometry" />
        </mxCell>
      </root>
    </mxGraphModel>
  </diagram>
</mxfile>
